<?xml version="1.0" encoding="UTF-8" standalone="no"?>
<!DOCTYPE svg PUBLIC "-//W3C//DTD SVG 1.1//EN" "http://www.w3.org/Graphics/SVG/1.1/DTD/svg11.dtd">
<svg width="100%" height="100%" viewBox="0 0 512 512" version="1.1" xmlns="http://www.w3.org/2000/svg" xmlns:xlink="http://www.w3.org/1999/xlink" xml:space="preserve" xmlns:serif="http://www.serif.com/" style="fill-rule:evenodd;clip-rule:evenodd;stroke-linejoin:round;stroke-miterlimit:2;">
    <path d="M510,81.6C510,36.564 473.436,0 428.4,0L81.6,0C36.564,0 0,36.564 0,81.6L0,428.4C0,473.436 36.564,510 81.6,510L428.4,510C473.436,510 510,473.436 510,428.4L510,81.6Z" style="fill:rgb(38,38,38);"/>
    <g transform="matrix(0.4375,-1.07157e-16,1.07157e-16,0.4375,-177.5,32.5)">
        <path d="M1001.03,200.002C1177.17,200.56 1320,343.732 1320,520C1320,696.613 1176.61,840 1000,840C823.387,840 680,696.613 680,520L1000,520L1000,200L1001.03,200.002Z" style="fill:white;"/>
    </g>
    <g transform="matrix(0.4375,-1.07157e-16,1.07157e-16,0.4375,-177.5,32.5)">
        <circle cx="1000" cy="520" r="280" style="fill:rgb(38,38,38);"/>
    </g>
    <g transform="matrix(0.453125,-1.10984e-16,1.07157e-16,0.4375,-193.125,32.5)">
        <path d="M1000,520L1280,520L1280,560L1000,560L1000,520Z" style="fill:white;"/>
    </g>
    <g transform="matrix(-0.518306,-0.518306,0.309359,-0.309359,622.565,956.673)">
        <path d="M1000,520L1280,520L1280,560L1000,560L1000,520Z" style="fill:white;"/>
    </g>
    <g transform="matrix(0.4375,-1.07157e-16,1.07157e-16,0.4375,-177.5,32.5)">
        <rect x="1000" y="560" width="40" height="250" style="fill:white;"/>
    </g>
    <g transform="matrix(0.4375,-1.07157e-16,1.07157e-16,0.4375,-177.5,32.5)">
        <path d="M680,520L680,200L1000,200L1000,240L720,240L720,520L680,520Z" style="fill:white;"/>
    </g>
</svg>
