<?xml version="1.0" encoding="UTF-8" standalone="no"?>
<!DOCTYPE svg PUBLIC "-//W3C//DTD SVG 1.1//EN" "http://www.w3.org/Graphics/SVG/1.1/DTD/svg11.dtd">
<svg width="100%" height="100%" viewBox="0 0 512 512" version="1.1" xmlns="http://www.w3.org/2000/svg" xmlns:xlink="http://www.w3.org/1999/xlink" xml:space="preserve" xmlns:serif="http://www.serif.com/" style="fill-rule:evenodd;clip-rule:evenodd;stroke-linejoin:round;stroke-miterlimit:2;">
    <path d="M512,51.2C512,22.942 489.058,0 460.8,0L51.2,0C22.942,0 0,22.942 0,51.2L0,460.8C0,489.058 22.942,512 51.2,512L460.8,512C489.058,512 512,489.058 512,460.8L512,51.2Z" style="fill:rgb(26,26,26);"/>
    <g transform="matrix(0.75,0,0,0.75,64,64)">
        <path d="M256,0C397.29,0 512,114.71 512,256C512,397.29 397.29,512 256,512C114.71,512 0,397.29 0,256C0,114.71 114.71,0 256,0ZM256,19.457C386.552,19.457 492.543,125.448 492.543,256C492.543,386.552 386.552,492.543 256,492.543C125.448,492.543 19.457,386.552 19.457,256C19.457,125.448 125.448,19.457 256,19.457Z" style="fill:white;"/>
    </g>
    <g id="Calque1">
    </g>
    <g transform="matrix(-0.5,-6.12323e-17,4.08216e-17,-0.333333,384,186.667)">
        <path d="M288,224L224,224L240,32L272,32L288,224Z" style="fill:rgb(89,89,89);"/>
    </g>
    <g transform="matrix(-0.433013,-0.25,0.166667,-0.288675,401.518,259.956)">
        <path d="M288,224L224,224L240,32L272,32L288,224Z" style="fill:rgb(89,89,89);"/>
    </g>
    <g transform="matrix(-0.25,-0.433013,0.288675,-0.166667,380.044,332.185)">
        <path d="M288,224L224,224L240,32L272,32L288,224Z" style="fill:rgb(89,89,89);"/>
    </g>
    <g transform="matrix(4.71845e-16,-0.5,0.333333,3.33067e-16,325.333,384)">
        <path d="M288,224L224,224L240,32L272,32L288,224Z" style="fill:rgb(89,89,89);"/>
    </g>
    <g transform="matrix(0.25,-0.433013,0.288675,0.166667,252.044,401.518)">
        <path d="M288,224L224,224L240,32L272,32L288,224Z" style="fill:rgb(89,89,89);"/>
    </g>
    <g transform="matrix(0.433013,-0.25,0.166667,0.288675,179.815,380.044)">
        <path d="M288,224L224,224L240,32L272,32L288,224Z" style="fill:rgb(89,89,89);"/>
    </g>
    <g transform="matrix(0.5,8.32667e-16,-5.55112e-16,0.333333,128,325.333)">
        <path d="M288,224L224,224L240,32L272,32L288,224Z" style="fill:rgb(89,89,89);"/>
    </g>
    <g transform="matrix(0.433013,0.25,-0.166667,0.288675,110.482,252.044)">
        <path d="M288,224L224,224L240,32L272,32L288,224Z" style="fill:rgb(89,89,89);"/>
    </g>
    <g transform="matrix(0.25,0.433013,-0.288675,0.166667,131.956,179.815)">
        <path d="M288,224L224,224L240,32L272,32L288,224Z" style="fill:rgb(89,89,89);"/>
    </g>
    <g transform="matrix(-1.249e-15,0.5,-0.333333,-8.04912e-16,186.667,128)">
        <path d="M288,224L224,224L240,32L272,32L288,224Z" style="fill:rgb(89,89,89);"/>
    </g>
    <g transform="matrix(-0.25,0.433013,-0.288675,-0.166667,259.956,110.482)">
        <path d="M288,224L224,224L240,32L272,32L288,224Z" style="fill:rgb(89,89,89);"/>
    </g>
    <g transform="matrix(-0.433013,0.25,-0.166667,-0.288675,332.185,131.956)">
        <path d="M288,224L224,224L240,32L272,32L288,224Z" style="fill:rgb(89,89,89);"/>
    </g>
    <g transform="matrix(0.5,0,0,0.5,128,128)">
        <circle cx="256" cy="256" r="64" style="fill:white;"/>
    </g>
</svg>
